<?xml version="1.0" encoding="UTF-8" standalone="no"?>
<!-- Created with Inkscape (http://www.inkscape.org/) -->

<svg
   xmlns:dc="http://purl.org/dc/elements/1.1/"
   xmlns:cc="http://creativecommons.org/ns#"
   xmlns:rdf="http://www.w3.org/1999/02/22-rdf-syntax-ns#"
   xmlns:svg="http://www.w3.org/2000/svg"
   xmlns="http://www.w3.org/2000/svg"
   xmlns:xlink="http://www.w3.org/1999/xlink"
   xmlns:sodipodi="http://sodipodi.sourceforge.net/DTD/sodipodi-0.dtd"
   xmlns:inkscape="http://www.inkscape.org/namespaces/inkscape"
   width="107.55833mm"
   height="76.824341mm"
   viewBox="0 0 107.55833 76.824341"
   version="1.1"
   id="svg4589"
   inkscape:version="0.92.4 5da689c313, 2019-01-14"
   sodipodi:docname="neutrino-logo.svg">
  <defs
     id="defs4583">
    <linearGradient
       gradientTransform="matrix(0.10740817,0,0,0.10740817,62.375014,94.288615)"
       inkscape:collect="always"
       xlink:href="#linearGradient841"
       id="linearGradient843"
       x1="619.36078"
       y1="173.27916"
       x2="7.2179027"
       y2="785.42206"
       gradientUnits="userSpaceOnUse" />
    <linearGradient
       inkscape:collect="always"
       id="linearGradient841">
      <stop
         style="stop-color:#75409e;stop-opacity:1"
         offset="0"
         id="stop837" />
      <stop
         style="stop-color:#e0a1c0;stop-opacity:1"
         offset="1"
         id="stop839" />
    </linearGradient>
  </defs>
  <sodipodi:namedview
     id="base"
     pagecolor="#ffffff"
     bordercolor="#666666"
     borderopacity="1.0"
     inkscape:pageopacity="0.0"
     inkscape:pageshadow="2"
     inkscape:zoom="0.98994949"
     inkscape:cx="-33.253686"
     inkscape:cy="55.961798"
     inkscape:document-units="mm"
     inkscape:current-layer="layer1"
     showgrid="false"
     fit-margin-top="5"
     fit-margin-left="5"
     fit-margin-bottom="5"
     fit-margin-right="5"
     inkscape:window-width="1920"
     inkscape:window-height="1024"
     inkscape:window-x="0"
     inkscape:window-y="28"
     inkscape:window-maximized="1" />
  <metadata
     id="metadata4586">
    <rdf:RDF>
      <cc:Work
         rdf:about="">
        <dc:format>image/svg+xml</dc:format>
        <dc:type
           rdf:resource="http://purl.org/dc/dcmitype/StillImage" />
        <dc:title></dc:title>
      </cc:Work>
    </rdf:RDF>
  </metadata>
  <g
     inkscape:label="Ebene 1"
     inkscape:groupmode="layer"
     id="layer1"
     transform="translate(-51.220838,-110.08783)">
    <g
       id="g5223">
      <g
         id="text823"
         style="font-style:normal;font-variant:normal;font-weight:normal;font-stretch:normal;font-size:10.58333302px;line-height:1.25;font-family:Comfortaa;-inkscape-font-specification:Comfortaa;letter-spacing:0px;word-spacing:0px;opacity:0.8;fill:#013243;fill-opacity:1;stroke:none;stroke-width:0.26458332"
         aria-label="neutrino">
        <path
           id="path5195"
           style="font-style:normal;font-variant:normal;font-weight:normal;font-stretch:normal;font-size:22.57777786px;font-family:Comfortaa;-inkscape-font-specification:Comfortaa;fill:#013243;fill-opacity:1;stroke-width:0.26458332"
           d="m 62.068483,169.29119 q 1.603023,0 2.867378,0.67734 1.286934,0.67733 2.009422,1.98684 0.722489,1.28693 0.722489,3.09316 v 5.87022 q 0,0.36124 -0.248355,0.6096 -0.248356,0.24835 -0.6096,0.24835 -0.383822,0 -0.632178,-0.24835 -0.248356,-0.24836 -0.248356,-0.6096 v -5.87022 q 0,-2.00943 -1.128888,-3.048 -1.106312,-1.06116 -2.912534,-1.06116 -1.106311,0 -2.009422,0.42898 -0.880533,0.42898 -1.399822,1.19662 -0.519289,0.74507 -0.519289,1.67076 v 6.68302 q 0,0.38382 -0.248356,0.63218 -0.225777,0.22577 -0.6096,0.22577 -0.383822,0 -0.632177,-0.22577 -0.248356,-0.24836 -0.248356,-0.63218 v -10.61156 q 0,-0.38382 0.248356,-0.63218 0.248355,-0.24835 0.632177,-0.24835 0.383823,0 0.6096,0.24835 0.248356,0.24836 0.248356,0.63218 v 0.76765 q 0.745067,-0.83538 1.806222,-1.30951 1.061156,-0.47414 2.302933,-0.47414 z" />
        <path
           id="path5197"
           style="font-style:normal;font-variant:normal;font-weight:normal;font-stretch:normal;font-size:22.57777786px;font-family:Comfortaa;-inkscape-font-specification:Comfortaa;fill:#013243;fill-opacity:1;stroke-width:0.26458332"
           d="m 76.766575,169.31377 q 1.670755,0 2.957688,0.79022 1.286934,0.76765 1.986845,2.14489 0.722489,1.37725 0.722489,3.13831 0,0.36125 -0.225778,0.58702 -0.225778,0.2032 -0.587022,0.2032 h -9.121422 q 0.180622,1.85138 1.444977,3.00285 1.264356,1.15147 3.160889,1.15147 0.8128,0 1.6256,-0.27094 0.835378,-0.29351 1.332089,-0.72249 0.293511,-0.22577 0.6096,-0.22577 0.248356,0 0.496711,0.18062 0.293511,0.27093 0.293511,0.6096 0,0.29351 -0.248355,0.51929 -0.745067,0.63217 -1.896534,1.06115 -1.151466,0.4064 -2.212622,0.4064 -1.806222,0 -3.228622,-0.79022 -1.4224,-0.8128 -2.2352,-2.2352 -0.790222,-1.44498 -0.790222,-3.2512 0,-1.8288 0.745066,-3.2512 0.767645,-1.44498 2.099734,-2.2352 1.354666,-0.8128 3.070578,-0.8128 z m 0,1.55787 q -1.715912,0 -2.8448,1.06115 -1.128889,1.06116 -1.377245,2.79965 h 8.263467 q -0.180622,-1.73849 -1.264356,-2.79965 -1.083733,-1.06115 -2.777066,-1.06115 z" />
        <path
           id="path5199"
           style="font-style:normal;font-variant:normal;font-weight:normal;font-stretch:normal;font-size:22.57777786px;font-family:Comfortaa;-inkscape-font-specification:Comfortaa;fill:#013243;fill-opacity:1;stroke-width:0.26458332"
           d="m 95.709294,169.42666 q 0.383822,0 0.632178,0.24835 0.248355,0.22578 0.248355,0.6096 v 10.61156 q 0,0.38382 -0.248355,0.63218 -0.248356,0.24835 -0.632178,0.24835 -0.383822,0 -0.632178,-0.24835 -0.225777,-0.24836 -0.225777,-0.63218 v -0.76764 q -0.745067,0.83537 -1.806223,1.30951 -1.061155,0.47413 -2.302933,0.47413 -1.603022,0 -2.889956,-0.67733 -1.264355,-0.67734 -1.986844,-1.96427 -0.722489,-1.30951 -0.722489,-3.11573 v -5.87023 q 0,-0.36124 0.248356,-0.6096 0.248355,-0.24835 0.6096,-0.24835 0.383822,0 0.632177,0.24835 0.248356,0.24836 0.248356,0.6096 v 5.87023 q 0,2.00942 1.106311,3.07057 1.128889,1.03858 2.935111,1.03858 1.106311,0 1.986845,-0.42898 0.903111,-0.42897 1.4224,-1.17404 0.519289,-0.76764 0.519289,-1.69333 v -6.68303 q 0,-0.38382 0.225777,-0.6096 0.248356,-0.24835 0.632178,-0.24835 z" />
        <path
           id="path5201"
           style="font-style:normal;font-variant:normal;font-weight:normal;font-stretch:normal;font-size:22.57777786px;font-family:Comfortaa;-inkscape-font-specification:Comfortaa;fill:#013243;fill-opacity:1;stroke-width:0.26458332"
           d="m 106.09503,180.03821 q 0.36124,0 0.58702,0.24836 0.22578,0.24836 0.22578,0.63218 0,0.36124 -0.27093,0.6096 -0.27094,0.24835 -0.67734,0.24835 h -0.47413 q -1.19662,0 -2.14489,-0.56444 -0.94827,-0.58702 -1.49013,-1.55787 -0.51929,-0.99342 -0.51929,-2.2352 v -6.02826 h -1.467558 q -0.361244,0 -0.587022,-0.2032 -0.2032,-0.22578 -0.2032,-0.54187 0,-0.33867 0.2032,-0.54187 0.225778,-0.22578 0.587022,-0.22578 h 1.467558 v -3.49955 q 0,-0.38382 0.22578,-0.63218 0.24835,-0.24835 0.63217,-0.24835 0.38383,0 0.63218,0.24835 0.24836,0.24836 0.24836,0.63218 v 3.49955 h 2.55129 q 0.36124,0 0.56444,0.22578 0.22578,0.2032 0.22578,0.54187 0,0.31609 -0.22578,0.54187 -0.2032,0.2032 -0.56444,0.2032 h -2.55129 v 6.02826 q 0,1.15147 0.67733,1.89654 0.67733,0.72248 1.73849,0.72248 z" />
        <path
           id="path5203"
           style="font-style:normal;font-variant:normal;font-weight:normal;font-stretch:normal;font-size:22.57777786px;font-family:Comfortaa;-inkscape-font-specification:Comfortaa;fill:#013243;fill-opacity:1;stroke-width:0.26458332"
           d="m 115.30673,169.29119 q 0.94826,0 1.49013,0.24836 0.56445,0.24835 0.56445,0.69991 0,0.13547 -0.0226,0.2032 -0.0903,0.31609 -0.29351,0.42898 -0.18063,0.11289 -0.51929,0.11289 -0.2032,0 -0.69991,-0.0452 -0.18063,-0.0226 -0.54187,-0.0226 -1.69333,0 -2.77707,0.90311 -1.06115,0.90311 -1.06115,2.34809 v 6.75076 q 0,0.4064 -0.22578,0.63218 -0.22578,0.22577 -0.63218,0.22577 -0.4064,0 -0.63218,-0.22577 -0.22577,-0.22578 -0.22577,-0.63218 v -10.63414 q 0,-0.4064 0.22577,-0.63217 0.22578,-0.22578 0.63218,-0.22578 0.4064,0 0.63218,0.22578 0.22578,0.22577 0.22578,0.63217 v 0.99343 q 0.65475,-0.94827 1.67075,-1.46756 1.016,-0.51929 2.19005,-0.51929 z" />
        <path
           id="path5205"
           style="font-style:normal;font-variant:normal;font-weight:normal;font-stretch:normal;font-size:22.57777786px;font-family:Comfortaa;-inkscape-font-specification:Comfortaa;fill:#013243;fill-opacity:1;stroke-width:0.26458332"
           d="m 121.31238,181.7767 q -0.38382,0 -0.63218,-0.24835 -0.24835,-0.24836 -0.24835,-0.63218 v -10.58898 q 0,-0.38382 0.24835,-0.63218 0.24836,-0.24835 0.63218,-0.24835 0.38382,0 0.6096,0.24835 0.24835,0.24836 0.24835,0.63218 v 10.58898 q 0,0.38382 -0.24835,0.63218 -0.22578,0.24835 -0.6096,0.24835 z m -0.0226,-14.69813 q -0.51929,0 -0.88053,-0.36124 -0.33867,-0.36125 -0.33867,-0.88054 0,-0.54186 0.36125,-0.88053 0.36124,-0.33867 0.88053,-0.33867 0.49671,0 0.85795,0.33867 0.36125,0.33867 0.36125,0.88053 0,0.51929 -0.36125,0.88054 -0.36124,0.36124 -0.88053,0.36124 z" />
        <path
           id="path5207"
           style="font-style:normal;font-variant:normal;font-weight:normal;font-stretch:normal;font-size:22.57777786px;font-family:Comfortaa;-inkscape-font-specification:Comfortaa;fill:#013243;fill-opacity:1;stroke-width:0.26458332"
           d="m 132.44322,169.29119 q 1.60302,0 2.86737,0.67734 1.28694,0.67733 2.00943,1.98684 0.72249,1.28693 0.72249,3.09316 v 5.87022 q 0,0.36124 -0.24836,0.6096 -0.24836,0.24835 -0.6096,0.24835 -0.38382,0 -0.63218,-0.24835 -0.24835,-0.24836 -0.24835,-0.6096 v -5.87022 q 0,-2.00943 -1.12889,-3.048 -1.10631,-1.06116 -2.91254,-1.06116 -1.10631,0 -2.00942,0.42898 -0.88053,0.42898 -1.39982,1.19662 -0.51929,0.74507 -0.51929,1.67076 v 6.68302 q 0,0.38382 -0.24835,0.63218 -0.22578,0.22577 -0.6096,0.22577 -0.38383,0 -0.63218,-0.22577 -0.24836,-0.24836 -0.24836,-0.63218 v -10.61156 q 0,-0.38382 0.24836,-0.63218 0.24835,-0.24835 0.63218,-0.24835 0.38382,0 0.6096,0.24835 0.24835,0.24836 0.24835,0.63218 v 0.76765 q 0.74507,-0.83538 1.80622,-1.30951 1.06116,-0.47414 2.30294,-0.47414 z" />
        <path
           id="path5209"
           style="font-style:normal;font-variant:normal;font-weight:normal;font-stretch:normal;font-size:22.57777786px;font-family:Comfortaa;-inkscape-font-specification:Comfortaa;fill:#013243;fill-opacity:1;stroke-width:0.26458332"
           d="m 147.50255,181.88959 q -1.78365,0 -3.22862,-0.8128 -1.4224,-0.8128 -2.2352,-2.2352 -0.8128,-1.44498 -0.8128,-3.22862 0,-1.78364 0.8128,-3.22862 0.8128,-1.44498 2.2352,-2.25778 1.44497,-0.8128 3.22862,-0.8128 1.78364,0 3.20604,0.8128 1.4224,0.8128 2.2352,2.25778 0.83538,1.44498 0.83538,3.22862 0,1.78364 -0.8128,3.22862 -0.8128,1.4224 -2.25778,2.2352 -1.4224,0.8128 -3.20604,0.8128 z m 0,-1.58044 q 1.30951,0 2.34809,-0.6096 1.03858,-0.6096 1.6256,-1.67076 0.58702,-1.08373 0.58702,-2.41582 0,-1.35467 -0.58702,-2.41582 -0.58702,-1.08374 -1.6256,-1.69334 -1.03858,-0.6096 -2.34809,-0.6096 -1.28693,0 -2.34809,0.6096 -1.03858,0.6096 -1.64818,1.69334 -0.58702,1.06115 -0.58702,2.41582 0,1.33209 0.58702,2.41582 0.6096,1.06116 1.64818,1.67076 1.06116,0.6096 2.34809,0.6096 z" />
      </g>
      <path
         id="path815"
         d="m 104.9999,115.08783 c -12.048572,0 -21.825672,9.7771 -21.825672,21.82567 0,12.04857 9.7771,21.82589 21.825672,21.82589 12.04857,0 21.82589,-9.77732 21.82589,-21.82589 0,-4.95847 -1.65702,-9.53143 -4.44569,-13.19735 a 4.5057996,4.5057996 0 0 1 -0.67068,0.62682 c 2.63514,3.49813 4.19731,7.85064 4.19731,12.57053 0,11.55194 -9.35489,20.90683 -20.90683,20.90683 -11.551939,0 -20.906617,-9.35489 -20.906621,-20.90683 0,-11.55193 9.354682,-20.90662 20.906621,-20.90662 3.642,0 7.06531,0.93047 10.04623,2.56584 a 4.5057996,4.5057996 0 0 1 0.52676,-0.75353 c -3.13293,-1.73937 -6.73761,-2.73136 -10.57299,-2.73136 z m 13.98425,1.7909 a 3.8805871,3.8805871 0 0 0 -3.88054,3.88075 3.8805871,3.8805871 0 0 0 3.88054,3.88054 3.8805871,3.8805871 0 0 0 3.88054,-3.88054 3.8805871,3.8805871 0 0 0 -3.88054,-3.88075 z M 104.9999,128.071 a 8.8426383,8.8426383 0 0 0 -8.8425,8.8425 8.8426383,8.8426383 0 0 0 8.8425,8.84272 8.8426383,8.8426383 0 0 0 8.84272,-8.84272 8.8426383,8.8426383 0 0 0 -8.84272,-8.8425 z"
         style="color:#000000;font-style:normal;font-variant:normal;font-weight:normal;font-stretch:normal;font-size:medium;line-height:normal;font-family:sans-serif;font-variant-ligatures:normal;font-variant-position:normal;font-variant-caps:normal;font-variant-numeric:normal;font-variant-alternates:normal;font-feature-settings:normal;text-indent:0;text-align:start;text-decoration:none;text-decoration-line:none;text-decoration-style:solid;text-decoration-color:#000000;letter-spacing:normal;word-spacing:normal;text-transform:none;writing-mode:lr-tb;direction:ltr;text-orientation:mixed;dominant-baseline:auto;baseline-shift:baseline;text-anchor:start;white-space:normal;shape-padding:0;clip-rule:nonzero;display:inline;overflow:visible;visibility:visible;opacity:1;isolation:auto;mix-blend-mode:normal;color-interpolation:sRGB;color-interpolation-filters:linearRGB;solid-color:#000000;solid-opacity:1;vector-effect:none;fill:url(#linearGradient843);fill-opacity:1;fill-rule:nonzero;stroke:none;stroke-width:0.91894794;stroke-linecap:round;stroke-linejoin:miter;stroke-miterlimit:4;stroke-dasharray:none;stroke-dashoffset:0;stroke-opacity:1;color-rendering:auto;image-rendering:auto;shape-rendering:auto;text-rendering:auto;enable-background:accumulate"
         inkscape:connector-curvature="0" />
      <path
         inkscape:connector-curvature="0"
         d="m 105.21309,133.1122 q 0.94862,0 1.70478,0.41244 0.75615,0.41245 1.18235,1.20985 0.42619,0.78365 0.42619,1.89726 v 3.38207 q 0,0.30246 -0.20622,0.50868 -0.19248,0.19248 -0.49494,0.19248 -0.30246,0 -0.50868,-0.19248 -0.19248,-0.20622 -0.19248,-0.50868 v -3.38207 q 0,-1.11361 -0.60492,-1.67729 -0.59117,-0.57742 -1.58105,-0.57742 -0.57742,0 -1.05862,0.23372 -0.46743,0.23372 -0.7424,0.63242 -0.26122,0.3987 -0.26122,0.89363 v 3.87701 q 0,0.30246 -0.19247,0.50868 -0.19248,0.19248 -0.50869,0.19248 -0.30246,0 -0.50868,-0.19248 -0.19248,-0.20622 -0.19248,-0.50868 v -6.13172 q 0,-0.31621 0.19248,-0.50868 0.20622,-0.19248 0.50868,-0.19248 0.31621,0 0.50869,0.19248 0.19247,0.19247 0.19247,0.50868 v 0.15123 q 0.43995,-0.43994 1.04487,-0.67366 0.60492,-0.24747 1.29234,-0.24747 z"
         style="font-style:normal;font-variant:normal;font-weight:bold;font-stretch:normal;font-size:33.86666489px;line-height:1.25;font-family:Comfortaa;-inkscape-font-specification:'Comfortaa Bold';letter-spacing:0px;word-spacing:0px;fill:#ffffff;fill-opacity:1;stroke:none;stroke-width:0.10740817"
         id="path832" />
    </g>
  </g>
</svg>
